# xmcd
#
# Track frame offsets: 
#        150
#        11856
#        23755
#        43357
#        57642
#        68300
#        77473
#        93233
#        103586
#        129388
#        140687
#        154305
#
# Disc length: 2252 seconds
#
# Revision: 0
# Processed by: cddbd v1.5.2PL0 Copyright (c) Steve Scherf et al.
# Submitted via: ExactAudioCopyFreeDBPlugin 1.0
#
DISCID=9c08ca0c
DTITLE=Emil Ernebro - Handmade
DYEAR=2011
DGENRE=
TTITLE0=Nine Pound Hammer
TTITLE1=What a Wonderful World
TTITLE2=Fly Me To The Moon
TTITLE3=Somewhere
TTITLE4=Luthier's Song
TTITLE5=Cannonball Rag
TTITLE6=Don't Know Why
TTITLE7=Reed It
TTITLE8=Mountain Of Illinois
TTITLE9=House Of The Rising Sun
TTITLE10=When You Wish Upon A Star
TTITLE11=Last Steam Engine Train
EXTD=
EXTT0=
EXTT1=
EXTT2=
EXTT3=
EXTT4=
EXTT5=
EXTT6=
EXTT7=
EXTT8=
EXTT9=
EXTT10=
EXTT11=
PLAYORDER=
